<svg width="80" height="80" viewBox="0 0 80 80" fill="none" xmlns="http://www.w3.org/2000/svg">
<path d="M39.9998 45.9298C31.8534 45.9298 25.2261 39.3024 25.2261 31.156V27.6888C25.2261 26.9147 25.8533 26.2875 26.6274 26.2875H53.3723C54.1464 26.2875 54.7736 26.9147 54.7736 27.6888V31.156C54.7738 39.3024 48.1462 45.9298 39.9998 45.9298ZM28.0288 29.0901V31.156C28.0288 37.757 33.399 43.1271 39.9998 43.1271C46.6008 43.1271 51.971 37.7568 51.971 31.156V29.0901H28.0288Z" fill="#A0CE4E"/>
<path d="M53.5677 29.0901H26.4327C23.1592 29.0901 20.4963 26.4267 20.4963 23.1533C20.4963 21.4218 21.2568 19.7851 22.5567 18.663C24.0259 10.2643 31.4243 4 39.9999 4C48.5755 4 55.9743 10.2643 57.444 18.6634C58.744 19.7854 59.504 21.4222 59.504 23.1531C59.504 26.4266 56.841 29.0901 53.5677 29.0901ZM39.9999 6.80256C32.6194 6.80256 26.2749 12.3147 25.2416 19.624C25.1869 20.0104 24.9735 20.3566 24.6527 20.5792C23.8048 21.1672 23.2987 22.1296 23.2987 23.1533C23.2987 24.8818 24.7047 26.2875 26.4325 26.2875H53.5674C55.2952 26.2875 56.7011 24.8818 56.7011 23.1533C56.7011 22.1298 56.1949 21.1677 55.3474 20.5792C55.0266 20.3566 54.8131 20.0104 54.7584 19.624C53.7255 12.3147 47.3803 6.80256 39.9999 6.80256Z" fill="#A0CE4E"/>
<path d="M36.3465 15.1606C35.7249 15.1606 35.1569 14.7437 34.9918 14.1142L33.0595 6.74061C32.8635 5.99197 33.3113 5.22573 34.0598 5.02957C34.8087 4.83517 35.5742 5.28141 35.7708 6.02989L37.7031 13.4035C37.8991 14.1521 37.4513 14.9184 36.7028 15.1145C36.5838 15.1456 36.4643 15.1606 36.3465 15.1606Z" fill="#A0CE4E"/>
<path d="M43.6536 15.1606C43.536 15.1606 43.4164 15.1456 43.2974 15.1145C42.5488 14.9184 42.1009 14.152 42.2971 13.4035L44.2294 6.0299C44.426 5.2819 45.1928 4.83614 45.9404 5.02958C46.6891 5.22574 47.1369 5.99214 46.9408 6.74062L45.0084 14.1142C44.8433 14.7437 44.2753 15.1606 43.6536 15.1606Z" fill="#A0CE4E"/>
<path d="M24.1547 66.2864C23.3806 66.2864 22.7534 65.6592 22.7534 64.885V48.944C22.7534 48.1699 23.3806 47.5427 24.1547 47.5427C24.9288 47.5427 25.556 48.1699 25.556 48.944V64.885C25.556 65.659 24.9288 66.2864 24.1547 66.2864Z" fill="#A0CE4E"/>
<path d="M42.099 56.3879H37.8951C33.2046 56.3879 29.3884 52.5717 29.3884 47.8807C29.3884 47.1066 30.0156 46.4767 30.7897 46.4767C31.5638 46.4767 32.191 47.1011 32.191 47.8752C32.191 51.0263 34.7499 53.5853 37.8951 53.5853H42.099C45.2473 53.5853 47.8091 51.0235 47.8091 47.8752C47.8091 47.1011 48.4363 46.4739 49.2103 46.4739C49.9844 46.4739 50.6116 47.1011 50.6116 47.8752C50.6116 52.569 46.7929 56.3879 42.099 56.3879Z" fill="#A0CE4E"/>
<path d="M55.8456 66.2864C55.0715 66.2864 54.4443 65.6592 54.4443 64.885V48.9448C54.4443 48.1707 55.0715 47.5435 55.8456 47.5435C56.6197 47.5435 57.2469 48.1707 57.2469 48.9448V64.885C57.2471 65.659 56.6197 66.2864 55.8456 66.2864Z" fill="#A0CE4E"/>
<path d="M56.1462 20.8291H23.8544C23.0803 20.8291 22.4531 20.2019 22.4531 19.4278C22.4531 18.6538 23.0803 18.0266 23.8544 18.0266H56.1462C56.9203 18.0266 57.5475 18.6538 57.5475 19.4278C57.5475 20.2021 56.9203 20.8291 56.1462 20.8291Z" fill="#A0CE4E"/>
<path d="M69.9607 76H10.0395C9.26538 76 8.63818 75.3728 8.63818 74.5987V65.208C8.63818 55.3784 16.6353 47.3811 26.4649 47.3811H27.4731C29.7127 47.3811 31.6779 45.9498 32.3633 43.8195C32.4751 43.472 32.5769 43.1162 32.6703 42.7559C32.7766 42.3461 33.0622 42.0063 33.4476 41.8317C33.8331 41.6562 34.2755 41.6656 34.6545 41.8544C38.0259 43.5435 41.9748 43.5427 45.3452 41.8544C45.7238 41.6656 46.1676 41.656 46.5527 41.8317C46.9377 42.0069 47.2233 42.3463 47.3295 42.7559C47.4231 43.1167 47.5247 43.472 47.6371 43.8191C48.3227 45.9503 50.2873 47.3811 52.5265 47.3811H53.5345C63.3646 47.3811 71.3619 55.3784 71.3619 65.2085V74.5987C71.362 75.3728 70.7348 76 69.9607 76ZM11.4409 73.1975H68.5595V65.2085C68.5595 56.9239 61.8195 50.1839 53.5348 50.1839H52.5268C49.1865 50.1839 46.2411 48.1231 45.0875 45.0189C41.8251 46.2296 38.175 46.2296 34.9135 45.0189C33.7595 48.1231 30.8137 50.1839 27.4734 50.1839H26.4652C18.1806 50.1839 11.4411 56.9235 11.4411 65.2082L11.4409 73.1975Z" fill="#A0CE4E"/>
<path d="M61.2871 76H18.7133C17.9392 76 17.312 75.3728 17.312 74.5987V67.6875C17.312 65.3695 19.1978 63.4837 21.5159 63.4837H58.4845C60.8026 63.4837 62.6883 65.3695 62.6883 67.6875V74.5987C62.6883 75.3728 62.0611 76 61.2871 76ZM20.1146 73.1975H59.8858V67.6877C59.8858 66.9149 59.2571 66.2864 58.4845 66.2864H21.5159C20.7431 66.2864 20.1146 66.9149 20.1146 67.6877V73.1975Z" fill="#A0CE4E"/>
</svg>
