<svg width="50" height="50" viewBox="0 0 50 50" fill="none" xmlns="http://www.w3.org/2000/svg">
<g clip-path="url(#clip0_1277_2)">
<path d="M29.9338 7.76769V6.07563C29.9338 4.59978 28.7331 3.39902 27.2572 3.39902H12.3809C10.905 3.39902 9.70434 4.59968 9.70434 6.07563V7.76769C9.70434 9.24354 10.905 10.4443 12.3809 10.4443H27.2572C28.733 10.4443 29.9338 9.24354 29.9338 7.76769ZM11.169 7.76769V6.07563C11.169 5.40747 11.7126 4.86381 12.3808 4.86381H27.2572C27.9253 4.86381 28.4689 5.40737 28.4689 6.07563V7.76769C28.4689 8.43585 27.9253 8.97951 27.2572 8.97951H12.3809C11.7127 8.97951 11.169 8.43585 11.169 7.76769ZM30.591 34.1801H18.691C18.2865 34.1801 17.9586 34.508 17.9586 34.9124C17.9586 35.3169 18.2865 35.6448 18.691 35.6448H30.591C30.9954 35.6448 31.3234 35.3169 31.3234 34.9124C31.3234 34.5079 30.9954 34.1801 30.591 34.1801ZM6.69957 1.46478H32.9384C34.4317 1.46478 35.7363 2.47256 36.1113 3.91551C36.213 4.307 36.6129 4.54208 37.0043 4.4402C37.3958 4.33843 37.6308 3.93863 37.529 3.54714C36.9863 1.45856 35.0986 0 32.9384 0H6.69957C4.08442 0 1.95691 2.12761 1.95691 4.74276V40.3197C1.95691 42.4058 3.29363 44.2251 5.28311 44.8472C5.67164 44.9686 6.08072 44.7503 6.20067 44.3667C6.32142 43.9806 6.10621 43.5699 5.72025 43.4492C4.34548 43.0195 3.42179 41.7618 3.42179 40.3198V4.74276C3.42169 2.9353 4.89221 1.46478 6.69957 1.46478ZM30.591 24.9227H18.691C18.2865 24.9227 17.9586 25.2506 17.9586 25.6551C17.9586 26.0595 18.2865 26.3875 18.691 26.3875H30.591C30.9954 26.3875 31.3234 26.0595 31.3234 25.6551C31.3234 25.2505 30.9954 24.9227 30.591 24.9227ZM7.63107 25.6551C7.63107 27.4246 9.07066 28.8641 10.8402 28.8641C12.6097 28.8641 14.0492 27.4245 14.0492 25.6551C14.0492 23.8856 12.6096 22.446 10.8402 22.446C9.07066 22.4461 7.63107 23.8856 7.63107 25.6551ZM12.5845 25.6551C12.5845 26.6169 11.802 27.3993 10.8403 27.3993C9.87845 27.3993 9.09596 26.6168 9.09596 25.6551C9.09596 24.6932 9.87845 23.9107 10.8403 23.9107C11.802 23.9108 12.5845 24.6932 12.5845 25.6551ZM35.5796 38.6794L33.2894 40.9695C33.0033 41.2556 33.0033 41.7193 33.2894 42.0052C33.4324 42.1483 33.6198 42.2198 33.8073 42.2198C33.9947 42.2198 34.1822 42.1483 34.3251 42.0052L36.6153 39.7152C36.9014 39.4291 36.9014 38.9654 36.6153 38.6793C36.3293 38.3934 35.8656 38.3934 35.5796 38.6794ZM10.8402 38.1216C12.6097 38.1216 14.0492 36.682 14.0492 34.9124C14.0492 33.1429 12.6096 31.7034 10.8402 31.7034C9.07066 31.7034 7.63107 33.143 7.63107 34.9124C7.63107 36.6819 9.07066 38.1216 10.8402 38.1216ZM10.8402 33.1681C11.802 33.1681 12.5844 33.9506 12.5844 34.9123C12.5844 35.8742 11.8019 36.6567 10.8402 36.6567C9.87835 36.6567 9.09586 35.8742 9.09586 34.9123C9.09586 33.9506 9.87835 33.1681 10.8402 33.1681ZM47.0937 29.2333L46.0614 28.2011C44.793 26.9325 42.7395 26.9322 41.4707 28.2011L37.6812 31.9906V7.19319C37.6812 6.78876 37.3532 6.4608 36.9488 6.4608C36.5444 6.4608 36.2164 6.78876 36.2164 7.19319V33.4556L27.4753 42.1966C27.0958 42.5762 26.7303 43.0573 26.4456 43.5978H8.92432C8.51988 43.5978 8.19193 43.9258 8.19193 44.3302C8.19193 44.7346 8.51988 45.0626 8.92432 45.0626H25.894L25.3999 46.754C24.9077 48.4389 26.2124 50 27.8159 50C28.4182 50 28.648 49.8356 30.6202 49.2877C31.5108 49.0275 32.3979 48.52 33.0982 47.8197L47.0937 33.8242C48.3594 32.5584 48.3594 30.499 47.0937 29.2333ZM28.1302 48.4889C27.3197 48.7257 26.5692 47.9749 26.806 47.1647L27.3805 45.1981L30.0967 47.9145L28.1302 48.4889ZM31.5054 47.2516L28.0431 43.7893C28.4444 43.224 28.0483 43.7271 36.8941 34.8491L40.4455 38.4006C31.5374 47.2764 32.0671 46.8529 31.5054 47.2516ZM41.4814 37.365L37.9299 33.8135L39.6874 32.056L43.2389 35.6075L41.4814 37.365ZM46.0579 32.7883L44.2746 34.5716L40.7231 31.0202L42.5065 29.2368C43.2026 28.5407 44.3293 28.5406 45.0257 29.2368L46.0579 30.2691C46.7525 30.9637 46.7525 32.0937 46.0579 32.7883ZM10.063 18.4379L14.3737 14.1271C14.6597 13.841 14.6597 13.3773 14.3737 13.0914C14.0876 12.8053 13.6239 12.8053 13.3379 13.0914L9.54515 16.8842L8.34232 15.6813C8.05626 15.3953 7.59254 15.3953 7.30657 15.6813C7.02051 15.9674 7.02051 16.4311 7.30657 16.7171L9.02728 18.4378C9.31304 18.7236 9.77706 18.7238 10.063 18.4379ZM30.591 15.6653H18.691C18.2865 15.6653 17.9586 15.9933 17.9586 16.3977C17.9586 16.8021 18.2865 17.1301 18.691 17.1301H30.591C30.9954 17.1301 31.3234 16.8021 31.3234 16.3977C31.3234 15.9932 30.9954 15.6653 30.591 15.6653Z" fill="#A0CE4E"/>
</g>
<defs>
<clipPath id="clip0_1277_2">
<rect width="50" height="50" fill="white"/>
</clipPath>
</defs>
</svg>
