<svg width="60" height="60" viewBox="0 0 60 60" fill="none" xmlns="http://www.w3.org/2000/svg">
<path d="M3.46573 51.5754H29.5752C29.8083 51.5732 30.032 51.4836 30.2021 51.3243C30.3722 51.165 30.4762 50.9475 30.4936 50.7151C30.5109 50.4827 30.4403 50.2522 30.2957 50.0694C30.1511 49.8866 29.9431 49.7648 29.7129 49.7282C29.7157 49.7004 29.7157 34.7004 29.7157 34.7004C29.7152 34.2032 29.5175 33.7266 29.166 33.3751C28.8145 33.0236 28.3379 32.8259 27.8407 32.8254H17.5282C17.0311 32.8259 16.5545 33.0236 16.203 33.3751C15.8514 33.7266 15.6537 34.2032 15.6532 34.7004V49.7004H3.46574L3.46848 26.6684L19.4009 16.8906L35.3407 26.6753V34.8784C35.3455 35.1239 35.4464 35.3577 35.6217 35.5296C35.797 35.7015 36.0327 35.7978 36.2783 35.7978C36.5238 35.7978 36.7595 35.7015 36.9348 35.5296C37.1101 35.3577 37.2109 35.1238 37.2157 34.8784V26.6753C37.215 26.3535 37.1323 26.0372 36.9753 25.7563C36.8183 25.4754 36.5923 25.2391 36.3185 25.0699L33.6485 23.4319C34.1107 23.3876 34.5399 23.173 34.8526 22.8299C35.1653 22.4868 35.3393 22.0396 35.3407 21.5754V18.7629C35.3402 18.2657 35.1425 17.7891 34.791 17.4376C34.4395 17.0861 33.9629 16.8884 33.4657 16.8879H30.6532C30.1561 16.8884 29.6795 17.0861 29.328 17.4376C28.9764 17.7891 28.7787 18.2657 28.7782 18.7629V20.4439L25.9657 18.7185V5.63786H47.5282V25.8129C47.5319 26.0591 47.6323 26.294 47.8077 26.4668C47.9831 26.6397 48.2195 26.7365 48.4658 26.7365C48.712 26.7365 48.9484 26.6396 49.1238 26.4668C49.2992 26.294 49.3996 26.059 49.4032 25.8128V5.63782C49.4027 5.14069 49.205 4.66406 48.8535 4.31254C48.502 3.96102 48.0254 3.76331 47.5282 3.76282H25.9657C25.4686 3.76331 24.992 3.96102 24.6405 4.31254C24.2889 4.66406 24.0912 5.14069 24.0907 5.63782V17.5681L20.3883 15.2967C20.0949 15.1109 19.7549 15.012 19.4076 15.0112C19.0602 15.0103 18.7198 15.1077 18.4254 15.2921L2.4765 25.0772C2.20553 25.2467 1.98208 25.4823 1.82714 25.7618C1.6722 26.0414 1.59085 26.3557 1.59073 26.6753V49.7004C1.59123 50.1975 1.78893 50.6741 2.14045 51.0256C2.49197 51.3772 2.9686 51.5749 3.46573 51.5754ZM17.5282 34.7004H27.8407L27.8421 49.7004H17.5282V34.7004ZM30.6532 18.7629H33.4657L33.4671 21.5754H30.6532V18.7629Z" fill="#A0CE4E"/>
<path d="M8.15323 32.8253C7.6561 32.8258 7.17947 33.0235 6.82795 33.375C6.47643 33.7266 6.27873 34.2032 6.27823 34.7003V39.3878C6.27873 39.8849 6.47643 40.3616 6.82795 40.7131C7.17947 41.0646 7.6561 41.2623 8.15323 41.2628H11.9032C12.4004 41.2623 12.877 41.0646 13.2285 40.7131C13.58 40.3616 13.7777 39.8849 13.7782 39.3878V34.7003C13.7777 34.2032 13.58 33.7266 13.2285 33.375C12.877 33.0235 12.4004 32.8258 11.9032 32.8253H8.15323ZM11.9032 39.3878H8.15323V34.7003H11.9032V39.3878Z" fill="#A0CE4E"/>
<path d="M30.6532 8.45032C30.1561 8.45081 29.6795 8.64852 29.328 9.00004C28.9764 9.35156 28.7787 9.82819 28.7782 10.3253V13.1378C28.7787 13.6349 28.9764 14.1116 29.328 14.4631C29.6795 14.8146 30.1561 15.0123 30.6532 15.0128H33.4657C33.9629 15.0123 34.4395 14.8146 34.791 14.4631C35.1425 14.1116 35.3402 13.6349 35.3407 13.1378V10.3253C35.3402 9.82819 35.1425 9.35156 34.791 9.00004C34.4395 8.64852 33.9629 8.45081 33.4657 8.45032H30.6532ZM30.6532 13.1378V10.3253H33.4657L33.4671 13.1378H30.6532Z" fill="#A0CE4E"/>
<path d="M44.7157 10.3253C44.7152 9.82819 44.5175 9.35156 44.166 9.00004C43.8145 8.64852 43.3379 8.45081 42.8407 8.45032H40.0282C39.5311 8.45081 39.0545 8.64852 38.7029 9.00004C38.3514 9.35156 38.1537 9.82819 38.1532 10.3253V13.1378C38.1537 13.6349 38.3514 14.1116 38.7029 14.4631C39.0545 14.8146 39.5311 15.0123 40.0282 15.0128H42.8407C43.3379 15.0123 43.8145 14.8146 44.166 14.4631C44.5175 14.1116 44.7152 13.6349 44.7157 13.1378V10.3253ZM40.0282 13.1378V10.3253H42.8407L42.8421 13.1378H40.0282Z" fill="#A0CE4E"/>
<path d="M44.7157 18.7628C44.7152 18.2657 44.5175 17.7891 44.166 17.4375C43.8145 17.086 43.3379 16.8883 42.8407 16.8878H40.0282C39.5311 16.8883 39.0545 17.086 38.7029 17.4375C38.3514 17.7891 38.1537 18.2657 38.1532 18.7628V21.5753C38.1537 22.0724 38.3514 22.5491 38.7029 22.9006C39.0545 23.2521 39.5311 23.4498 40.0282 23.4503H42.8407C43.3379 23.4498 43.8145 23.2521 44.166 22.9006C44.5175 22.5491 44.7152 22.0724 44.7157 21.5753V18.7628ZM40.0282 21.5753V18.7628H42.8407L42.8421 21.5753H40.0282Z" fill="#A0CE4E"/>
<path d="M42.8407 25.3253H40.0282C39.5311 25.3258 39.0545 25.5235 38.7029 25.875C38.3514 26.2266 38.1537 26.7032 38.1532 27.2003V30.0128C38.1537 30.5099 38.3514 30.9866 38.7029 31.3381C39.0545 31.6896 39.5311 31.8873 40.0282 31.8878H42.8407C43.3379 31.8873 43.8145 31.6896 44.166 31.3381C44.5175 30.9866 44.7152 30.5099 44.7157 30.0128V27.2003C44.7152 26.7032 44.5175 26.2266 44.166 25.875C43.8145 25.5235 43.3379 25.3258 42.8407 25.3253ZM40.0282 30.0128V27.2003H42.8407L42.8421 30.0128H40.0282Z" fill="#A0CE4E"/>
<path d="M56.7517 25.3597C56.5014 24.9308 56.092 24.6181 55.6124 24.4894C55.1328 24.3607 54.6218 24.4266 54.1905 24.6726L46.0716 29.3605C45.6426 29.6107 45.3298 30.0202 45.2012 30.4998C45.0726 30.9795 45.1387 31.4905 45.385 31.9217L45.6876 32.4458L44.1165 33.3871C43.8998 33.5186 43.7118 33.6924 43.5635 33.8981C43.4153 34.1038 43.31 34.3372 43.2538 34.5844C43.1976 34.8316 43.1917 35.0876 43.2364 35.3372C43.2811 35.5867 43.3756 35.8247 43.5141 36.0371L46.236 40.1093L43.8028 41.9283L39.1337 37.2593C38.8468 36.9779 38.4924 36.7751 38.1044 36.6701C37.7165 36.5652 37.3082 36.5617 36.9185 36.6599C36.5289 36.7582 36.171 36.9549 35.8792 37.2312C35.5875 37.5076 35.3716 37.8543 35.2524 38.238L30.7535 53.2338C30.6383 53.6365 30.633 54.0626 30.738 54.468C30.8429 54.8734 31.0544 55.2434 31.3506 55.5395C31.6467 55.8357 32.0166 56.0473 32.422 56.1523C32.8274 56.2573 33.2535 56.252 33.6562 56.1369L48.6525 51.6381C49.0363 51.5189 49.383 51.303 49.6594 51.0113C49.9357 50.7195 50.1325 50.3616 50.2307 49.9719C50.329 49.5823 50.3254 49.1739 50.2204 48.786C50.1154 48.398 49.9125 48.0436 49.6311 47.7567L45.1421 43.2676L47.3657 41.6053C47.7444 41.3137 47.9989 40.8896 48.078 40.4183C48.1571 39.9469 48.0551 39.463 47.7924 39.0638L45.076 34.9984L46.6253 34.0701C46.7273 34.3242 46.8821 34.5537 47.0794 34.7435C47.2768 34.9332 47.5121 35.0789 47.7699 35.171C48.0278 35.263 48.3022 35.2992 48.5751 35.2773C48.848 35.2553 49.1131 35.1757 49.3529 35.0436L57.4718 30.3562C57.9005 30.1058 58.2131 29.6963 58.3416 29.2167C58.4701 28.7371 58.4041 28.2262 58.1579 27.795L56.7517 25.3597ZM48.4254 49.5168C48.4067 49.5936 48.3681 49.664 48.3135 49.7211C48.2588 49.7782 48.1901 49.8198 48.1142 49.8418L33.1174 54.3407C33.0385 54.3645 32.9546 54.3664 32.8747 54.3463C32.7948 54.3262 32.7218 54.2848 32.6635 54.2265C32.6053 54.1682 32.564 54.0952 32.5439 54.0153C32.5239 53.9353 32.5259 53.8515 32.5497 53.7726L37.0486 38.7763C37.0694 38.6992 37.1103 38.6291 37.1672 38.5731C37.224 38.5171 37.2948 38.4773 37.3722 38.4578C37.4496 38.4383 37.5308 38.4398 37.6074 38.4621C37.684 38.4845 37.7533 38.5268 37.8081 38.5849L48.3055 49.0824C48.3619 49.1379 48.4027 49.2072 48.4237 49.2835C48.4448 49.3598 48.4454 49.4402 48.4254 49.5168ZM56.5343 28.732L48.4154 33.42L47.0091 30.9843L55.1276 26.2968L56.5343 28.732Z" fill="#A0CE4E"/>
</svg>
