<svg width="168" height="50" viewBox="0 0 168 50" fill="none" xmlns="http://www.w3.org/2000/svg">
<path fill-rule="evenodd" clip-rule="evenodd" d="M25.7558 26.0809H30.4259V30.5741H25.7558V26.0809ZM19.4751 26.0809H24.1452V30.5741H19.4751V26.0809ZM25.7558 20.3179H30.4259V24.8111H25.7558V20.3179ZM19.4751 20.3179H24.1452V24.8111H19.4751V20.3179ZM1.68092 26.1895C3.44184 37.0298 13.1893 45.3239 24.9507 45.3239C36.7121 45.3239 46.4591 37.0298 48.2205 26.1895H44.0887V30.4384H45.3581V33.5399L24.9512 44.8701L4.54427 33.5399V30.4384H5.81363V26.1895H1.68092ZM48.2298 19.1896C46.4929 8.32214 36.732 0 24.9507 0C13.1695 0 3.40855 8.32214 1.67167 19.1896L4.65108 20.8447L7.08299 19.4939V33.418L11.4552 35.8468V17.2031L24.9503 9.70671L38.4453 17.2031V35.8468L42.8175 33.418V19.4939L45.2494 20.8447L48.2298 19.1896Z" fill="#A0CE4E"/>
<path d="M24.1452 20.3184H19.4751V24.8116H24.1452V20.3184Z" fill="#A0CE4E"/>
<path d="M24.1452 26.0811H19.4751V30.5742H24.1452V26.0811Z" fill="#A0CE4E"/>
<path fill-rule="evenodd" clip-rule="evenodd" d="M49.901 36.1529L24.9507 50L0 36.1529V26.1895H5.81271V30.4388H4.54335V33.5399L24.9507 44.8701L45.3576 33.5399V30.4388H44.0883V26.1895H49.901V36.1529Z" fill="#A0CE4E"/>
<path d="M30.4259 20.3184H25.7558V24.8116H30.4259V20.3184Z" fill="#A0CE4E"/>
<path d="M30.4259 26.0811H25.7558V30.5742H30.4259V26.0811Z" fill="#A0CE4E"/>
<path fill-rule="evenodd" clip-rule="evenodd" d="M24.9507 9.70596L38.4457 17.2023V35.8465L42.818 33.4177V19.4936L45.2499 20.8444L49.5625 18.449L24.9507 4.65039L11.4474 11.8789V8.85083L6.97894 11.333V14.7602L0.338943 18.449L4.65108 20.8444L7.08299 19.4936V33.4177L11.4552 35.8465V17.2023L24.9507 9.70596Z" fill="white"/>
<path d="M49.0644 41.667L34.099 50.0003H48.2768L52.215 46.667L168 41.667H49.0644Z" fill="#A0CE4E"/>
<path d="M54.8911 37.2877V11.0802H61.1366V21.5703H64.2412L69.1149 11.0802H75.7214L69.2232 24.2546L76.0102 37.2877H69.4037L64.2773 27.0449H61.1366V37.2877H54.8911Z" fill="white"/>
<path d="M88.7721 37.4997C86.919 37.4997 85.2824 37.3231 83.8624 36.9699C82.4665 36.6167 81.2872 35.9691 80.3245 35.0273C79.3859 34.0854 78.6759 32.7432 78.1946 31.0008C77.7373 29.2583 77.5086 26.9861 77.5086 24.184C77.5086 21.4055 77.7493 19.145 78.2307 17.4025C78.712 15.6365 79.422 14.2826 80.3606 13.3407C81.2992 12.3989 82.4665 11.7513 83.8624 11.3981C85.2824 11.0214 86.919 10.833 88.7721 10.833C90.6494 10.833 92.286 11.0214 93.6819 11.3981C95.1019 11.7513 96.2811 12.3989 97.2198 13.3407C98.1584 14.2826 98.8564 15.6365 99.3136 17.4025C99.795 19.145 100.036 21.4055 100.036 24.184C100.036 26.9861 99.795 29.2583 99.3136 31.0008C98.8564 32.7432 98.1464 34.0854 97.1837 35.0273C96.245 35.9691 95.0778 36.6167 93.6819 36.9699C92.286 37.3231 90.6494 37.4997 88.7721 37.4997ZM88.7721 32.0251C89.7589 32.0251 90.5772 31.9191 91.227 31.7072C91.8768 31.4717 92.3822 31.0832 92.7433 30.5416C93.1283 29.9765 93.3931 29.1877 93.5375 28.1752C93.7059 27.1391 93.7902 25.8087 93.7902 24.184C93.7902 22.5122 93.7059 21.1582 93.5375 20.1222C93.3931 19.0861 93.1283 18.2973 92.7433 17.7557C92.3822 17.1906 91.8768 16.8139 91.227 16.6255C90.5772 16.4136 89.7589 16.3076 88.7721 16.3076C87.8095 16.3076 87.0032 16.4136 86.3534 16.6255C85.7036 16.8139 85.1861 17.1906 84.801 17.7557C84.44 18.2973 84.1753 19.0861 84.0068 20.1222C83.8383 21.1582 83.7541 22.5122 83.7541 24.184C83.7541 25.8087 83.8263 27.1391 83.9707 28.1752C84.1392 29.1877 84.4039 29.9765 84.7649 30.5416C85.15 31.0832 85.6675 31.4717 86.3173 31.7072C86.9671 31.9191 87.7854 32.0251 88.7721 32.0251Z" fill="white"/>
<path d="M108.924 37.2877V16.5549H101.885V11.0802H122.173V16.5549H115.134V37.2877H108.924Z" fill="white"/>
<path d="M121.305 37.2877L129.464 11.0802H137.262L145.421 37.2877H138.958L137.587 32.5195H129.067L127.731 37.2877H121.305ZM130.511 27.0449H136.143L133.327 16.3076L130.511 27.0449Z" fill="white"/>
<path d="M147.964 37.2877V11.0802H159.227C160.359 11.0802 161.394 11.2215 162.332 11.5041C163.295 11.7631 164.125 12.2223 164.823 12.8816C165.545 13.5173 166.099 14.3886 166.484 15.4953C166.893 16.602 167.097 18.003 167.097 19.6983C167.097 20.8521 166.989 21.8411 166.773 22.6652C166.556 23.4658 166.267 24.1487 165.906 24.7138C165.545 25.2554 165.124 25.7028 164.643 26.056C164.185 26.4092 163.704 26.7153 163.199 26.9743L168 37.2877H161.646L157.639 27.9632C157.398 27.9632 157.122 27.9632 156.809 27.9632C156.52 27.9397 156.231 27.9279 155.942 27.9279C155.653 27.9279 155.353 27.9279 155.04 27.9279C154.751 27.9279 154.474 27.9279 154.209 27.9279V37.2877H147.964ZM154.209 23.0891H158.108C158.542 23.0891 158.927 23.042 159.264 22.9478C159.6 22.8301 159.889 22.6417 160.13 22.3827C160.371 22.1001 160.551 21.7469 160.671 21.3231C160.792 20.8992 160.852 20.3694 160.852 19.7337C160.852 19.0979 160.792 18.5799 160.671 18.1796C160.551 17.7557 160.371 17.4379 160.13 17.2259C159.889 16.9905 159.6 16.8256 159.264 16.7315C158.927 16.6137 158.542 16.5549 158.108 16.5549H154.209V23.0891Z" fill="white"/>
</svg>
