<svg width="202" height="60" viewBox="0 0 202 60" fill="none" xmlns="http://www.w3.org/2000/svg">
<path fill-rule="evenodd" clip-rule="evenodd" d="M30.9683 31.2971H36.5835V36.6889H30.9683V31.2971ZM23.4165 31.2971H29.0317V36.6889H23.4165V31.2971ZM30.9683 24.3815H36.5835V29.7734H30.9683V24.3815ZM23.4165 24.3815H29.0317V29.7734H23.4165V24.3815ZM2.02111 31.4274C4.13841 44.4358 15.8586 54.3887 30.0003 54.3887C44.1419 54.3887 55.8616 44.4358 57.9795 31.4274H53.0115V36.5261H54.5377V40.2479L30.0008 53.8442L5.46395 40.2479V36.5261H6.99021V31.4274H2.02111ZM57.9906 23.0276C55.9022 9.98657 44.1658 0 30.0003 0C15.8347 0 4.09838 9.98657 2.00999 23.0276L5.59239 25.0137L8.51647 23.3927V40.1016L13.7736 43.0162V20.6437L29.9997 11.6481L46.2259 20.6437V43.0162L51.483 40.1016V23.3927L54.4071 25.0137L57.9906 23.0276Z" fill="#A0CE4E"/>
<path d="M29.0317 24.3815H23.4165V29.7733H29.0317V24.3815Z" fill="#A0CE4E"/>
<path d="M29.0317 31.2971H23.4165V36.689H29.0317V31.2971Z" fill="#A0CE4E"/>
<path fill-rule="evenodd" clip-rule="evenodd" d="M60 43.3835L30.0003 60L0 43.3835V31.4274H6.98909V36.5267H5.46283V40.2479L30.0003 53.8442L54.5372 40.2479V36.5267H53.0109V31.4274H60V43.3835Z" fill="#A0CE4E"/>
<path d="M36.5835 24.3815H30.9683V29.7733H36.5835V24.3815Z" fill="#A0CE4E"/>
<path d="M36.5835 31.2971H30.9683V36.689H36.5835V31.2971Z" fill="#A0CE4E"/>
<path fill-rule="evenodd" clip-rule="evenodd" d="M30.0003 11.6476L46.2264 20.6432V43.0162L51.4835 40.1017V23.3928L54.4076 25.0137L59.593 22.1392L30.0003 5.58087L13.7641 14.2551V10.6214L8.39135 13.6V17.7126L0.407547 22.1392L5.59238 25.0137L8.51646 23.3928V40.1017L13.7736 43.0162V20.6432L30.0003 11.6476Z" fill="#0E121D"/>
<path d="M58.9941 50L41 60H58.0471L62.7824 56L202 50H58.9941Z" fill="#A0CE4E"/>
<path d="M66 44.7457V13.2967H73.2967V25.8848H76.924L82.6179 13.2967H90.3364L82.7445 29.106L90.6738 44.7457H82.9554L76.9661 32.4543H73.2967V44.7457H66Z" fill="#0E121D"/>
<path d="M105.584 45C103.419 45 101.507 44.7881 99.8478 44.3642C98.2169 43.9404 96.8391 43.1634 95.7144 42.0331C94.6178 40.9029 93.7883 39.2923 93.2259 37.2013C92.6917 35.1104 92.4245 32.3837 92.4245 29.0212C92.4245 25.687 92.7057 22.9744 93.2681 20.8834C93.8304 18.7642 94.6599 17.1395 95.7565 16.0093C96.8532 14.879 98.2169 14.102 99.8478 13.6781C101.507 13.226 103.419 13 105.584 13C107.777 13 109.689 13.226 111.32 13.6781C112.979 14.102 114.357 14.879 115.453 16.0093C116.55 17.1395 117.365 18.7642 117.9 20.8834C118.462 22.9744 118.743 25.687 118.743 29.0212C118.743 32.3837 118.462 35.1104 117.9 37.2013C117.365 39.2923 116.536 40.9029 115.411 42.0331C114.315 43.1634 112.951 43.9404 111.32 44.3642C109.689 44.7881 107.777 45 105.584 45ZM105.584 38.4305C106.737 38.4305 107.693 38.3033 108.452 38.049C109.211 37.7664 109.802 37.3002 110.223 36.6503C110.673 35.9722 110.983 35.0256 111.151 33.8106C111.348 32.5673 111.447 30.9709 111.447 29.0212C111.447 27.015 111.348 25.3903 111.151 24.147C110.983 22.9038 110.673 21.9572 110.223 21.3073C109.802 20.6291 109.211 20.177 108.452 19.951C107.693 19.6967 106.737 19.5695 105.584 19.5695C104.459 19.5695 103.517 19.6967 102.758 19.951C101.999 20.177 101.394 20.6291 100.944 21.3073C100.523 21.9572 100.213 22.9038 100.016 24.147C99.8196 25.3903 99.7212 27.015 99.7212 29.0212C99.7212 30.9709 99.8056 32.5673 99.9743 33.8106C100.171 35.0256 100.48 35.9722 100.902 36.6503C101.352 37.3002 101.957 37.7664 102.716 38.049C103.475 38.3033 104.431 38.4305 105.584 38.4305Z" fill="#0E121D"/>
<path d="M123.05 44.7457V13.2967H128.828L140.806 32.3272V13.2967H148.103V44.7457H142.283L130.304 25.7576V44.7457H123.05Z" fill="#0E121D"/>
<path d="M159.361 44.7457V19.8662H151.136V13.2967H174.84V19.8662H166.615V44.7457H159.361Z" fill="#0E121D"/>
<path d="M173.825 44.7457L183.358 13.2967H192.468L202 44.7457H194.45L192.847 39.0238H182.894L181.333 44.7457H173.825ZM184.581 32.4543H191.16L187.871 19.5695L184.581 32.4543Z" fill="#0E121D"/>
</svg>
